<svg xmlns="http://www.w3.org/2000/svg" viewBox="0 0 400 520" width="400" height="520">
  <rect x="1" y="1" width="398" height="518" rx="12" fill="#FFFFFF"/>
  <rect x="8" y="8" width="384" height="504" rx="10" fill="none" stroke="#C80000" stroke-width="2"/>
  <rect x="20" y="20" width="360" height="480" rx="6" fill="none" stroke="#EAEAEA" stroke-width="1"/>

  <path d="M200,52 L218,63 L218,85 L200,96 L182,85 L182,63 Z" fill="none" stroke="#C80000" stroke-width="3"/>
  <circle cx="200" cy="74" r="4" fill="#C80000"/>

  <text x="200" y="150" text-anchor="middle" font-family="Georgia, 'Times New Roman', serif" font-weight="700" font-size="30" fill="#14141A">Professional Level</text>

  <text x="200" y="192" text-anchor="middle" font-family="Arial, sans-serif" font-size="11" letter-spacing="1.5" fill="#A1948D">THIS CERTIFIES THAT</text>
  <text x="200" y="226" text-anchor="middle" font-family="Georgia, serif" font-style="italic" font-size="24" fill="#14141A">A. Student</text>

  <text x="200" y="262" text-anchor="middle" font-family="Arial, sans-serif" font-size="13" fill="#5C4F4A">has completed the Professional Level</text>

  <text x="200" y="298" text-anchor="middle" font-family="Arial, sans-serif" font-size="12.5" fill="#14141A">Strategic Business Leader — Pass</text>
  <text x="200" y="318" text-anchor="middle" font-family="Arial, sans-serif" font-size="12.5" fill="#14141A">Strategic Business Reporting — Pass</text>
  <text x="200" y="338" text-anchor="middle" font-family="Arial, sans-serif" font-size="12.5" fill="#14141A">Two Options papers — Pass</text>

  <text x="200" y="374" text-anchor="middle" font-family="Arial, sans-serif" font-size="12" fill="#8E817B">Month, 20XX</text>

  <path d="M156,410 Q168,394 180,410 T204,410 T228,410" fill="none" stroke="#5C4F4A" stroke-width="1.5"/>
  <text x="200" y="432" text-anchor="middle" font-family="Arial, sans-serif" font-size="10" letter-spacing="1" fill="#A1948D">PROGRAM DIRECTOR</text>

  <line x1="140" y1="454" x2="260" y2="454" stroke="#EAEAEA" stroke-width="1"/>
  <text x="200" y="478" text-anchor="middle" font-family="Arial, sans-serif" font-size="9" fill="#B9ACA5">Illustrative sample — not an official ACCA document</text>
  <text x="200" y="500" text-anchor="middle" font-family="Arial, sans-serif" font-weight="700" font-size="11" letter-spacing="2" fill="#C80000">SCHOLIFY</text>
</svg>
