<svg xmlns="http://www.w3.org/2000/svg" viewBox="0 0 400 520" width="400" height="520">
  <defs>
    <linearGradient id="paper-ad" x1="0" y1="0" x2="1" y2="1">
      <stop offset="0" stop-color="#FFFFFF"/>
      <stop offset="1" stop-color="#FAF7F2"/>
    </linearGradient>
    <linearGradient id="gold-ad" x1="0" y1="0" x2="1" y2="0">
      <stop offset="0" stop-color="#C80000"/>
      <stop offset="1" stop-color="#F4A405"/>
    </linearGradient>
  </defs>

  <rect x="0" y="0" width="400" height="520" rx="14" fill="url(#paper-ad)"/>
  <rect x="1" y="1" width="398" height="518" rx="14" fill="none" stroke="#EDE6DC" stroke-width="1"/>
  <rect x="10" y="10" width="380" height="500" rx="10" fill="none" stroke="url(#gold-ad)" stroke-width="2"/>
  <rect x="18" y="18" width="364" height="484" rx="6" fill="none" stroke="#E4DACB" stroke-width="1"/>

  <g opacity="0.05" transform="translate(200,270) rotate(-24)">
    <text x="0" y="0" text-anchor="middle" font-family="Georgia, serif" font-weight="700" font-size="54" letter-spacing="6" fill="#14141A">SPECIMEN</text>
  </g>

  <path d="M32,34 h20 M34,32 v20" stroke="#F4A405" stroke-width="1.5"/>
  <path d="M368,34 h-20 M366,32 v20" stroke="#F4A405" stroke-width="1.5"/>
  <path d="M32,486 h20 M34,488 v-20" stroke="#F4A405" stroke-width="1.5"/>
  <path d="M368,486 h-20 M366,488 v-20" stroke="#F4A405" stroke-width="1.5"/>

  <path d="M200,50 L219,62 L219,86 L200,98 L181,86 L181,62 Z" fill="none" stroke="#C80000" stroke-width="3"/>
  <circle cx="200" cy="74" r="4.5" fill="#C80000"/>

  <text x="200" y="136" text-anchor="middle" font-family="Georgia, 'Times New Roman', serif" font-weight="700" font-size="23" fill="#14141A">Advanced Diploma in</text>
  <text x="200" y="164" text-anchor="middle" font-family="Georgia, 'Times New Roman', serif" font-weight="700" font-size="23" fill="#14141A">Accounting and Business</text>
  <path d="M160,180 h80" stroke="#F4A405" stroke-width="1.5"/>

  <text x="200" y="214" text-anchor="middle" font-family="Arial, sans-serif" font-size="11" letter-spacing="2" fill="#A1948D">THIS CERTIFIES THAT</text>
  <text x="200" y="246" text-anchor="middle" font-family="Georgia, serif" font-style="italic" font-size="21" fill="#14141A">Makhmudov Nuriddin</text>

  <text x="200" y="282" text-anchor="middle" font-family="Arial, sans-serif" font-size="13" fill="#5C4F4A">has been awarded the</text>
  <text x="200" y="303" text-anchor="middle" font-family="Arial, sans-serif" font-weight="600" font-size="14" fill="#14141A">Advanced Diploma in Accounting</text>
  <text x="200" y="321" text-anchor="middle" font-family="Arial, sans-serif" font-weight="600" font-size="14" fill="#14141A">and Business</text>

  <text x="200" y="362" text-anchor="middle" font-family="Arial, sans-serif" font-size="12" fill="#8E817B">Month, 20XX</text>

  <circle cx="200" cy="410" r="26" fill="none" stroke="#C80000" stroke-width="1.5"/>
  <circle cx="200" cy="410" r="21" fill="none" stroke="#F4A405" stroke-width="1"/>
  <text x="200" y="407" text-anchor="middle" font-family="Georgia, serif" font-weight="700" font-size="7.5" letter-spacing="0.3" fill="#C80000">ADVANCED</text>
  <text x="200" y="417" text-anchor="middle" font-family="Georgia, serif" font-weight="700" font-size="7.5" letter-spacing="0.3" fill="#C80000">DIPLOMA</text>

  <line x1="150" y1="452" x2="250" y2="452" stroke="#D9CFC0" stroke-width="1"/>
  <text x="200" y="470" text-anchor="middle" font-family="Arial, sans-serif" font-size="9" letter-spacing="1" fill="#A1948D">PROGRAM DIRECTOR</text>

  <text x="200" y="500" text-anchor="middle" font-family="Arial, sans-serif" font-weight="700" font-size="11" letter-spacing="3" fill="#C80000">SCHOLIFY</text>
</svg>
