<svg xmlns="http://www.w3.org/2000/svg" viewBox="0 0 400 520" width="400" height="520">
  <defs>
    <linearGradient id="paper-m" x1="0" y1="0" x2="1" y2="1">
      <stop offset="0" stop-color="#FFFFFF"/>
      <stop offset="1" stop-color="#FBF6EC"/>
    </linearGradient>
    <linearGradient id="gold-m" x1="0" y1="0" x2="1" y2="0">
      <stop offset="0" stop-color="#C80000"/>
      <stop offset="0.5" stop-color="#F4A405"/>
      <stop offset="1" stop-color="#C80000"/>
    </linearGradient>
  </defs>

  <rect x="0" y="0" width="400" height="520" rx="14" fill="url(#paper-m)"/>
  <rect x="1" y="1" width="398" height="518" rx="14" fill="none" stroke="#EDE0C8" stroke-width="1"/>
  <rect x="9" y="9" width="382" height="502" rx="10" fill="none" stroke="url(#gold-m)" stroke-width="2.5"/>
  <rect x="18" y="18" width="364" height="484" rx="6" fill="none" stroke="#E9D9B8" stroke-width="1"/>

  <g opacity="0.05" transform="translate(200,270) rotate(-24)">
    <text x="0" y="0" text-anchor="middle" font-family="Georgia, serif" font-weight="700" font-size="54" letter-spacing="6" fill="#14141A">SPECIMEN</text>
  </g>

  <path d="M30,32 h22 M32,30 v22" stroke="#F4A405" stroke-width="1.5"/>
  <path d="M370,32 h-22 M368,30 v22" stroke="#F4A405" stroke-width="1.5"/>
  <path d="M30,488 h22 M32,490 v-22" stroke="#F4A405" stroke-width="1.5"/>
  <path d="M370,488 h-22 M368,490 v-22" stroke="#F4A405" stroke-width="1.5"/>

  <path d="M200,48 L221,61 L221,87 L200,100 L179,87 L179,61 Z" fill="none" stroke="#C80000" stroke-width="3.5"/>
  <circle cx="200" cy="74" r="5" fill="#C80000"/>

  <text x="200" y="150" text-anchor="middle" font-family="Georgia, 'Times New Roman', serif" font-weight="700" font-size="32" fill="#14141A">Member</text>
  <path d="M145,168 h110" stroke="url(#gold-m)" stroke-width="1.5"/>

  <text x="200" y="200" text-anchor="middle" font-family="Arial, sans-serif" font-size="11" letter-spacing="2" fill="#A1948D">THIS CERTIFIES THAT</text>
  <text x="200" y="234" text-anchor="middle" font-family="Georgia, serif" font-style="italic" font-size="22" fill="#14141A">Makhmudov Nuriddin</text>

  <text x="200" y="268" text-anchor="middle" font-family="Arial, sans-serif" font-size="13" fill="#5C4F4A">qualified as a Chartered Certified</text>
  <text x="200" y="288" text-anchor="middle" font-family="Arial, sans-serif" font-size="13" fill="#5C4F4A">Accountant, one paper at a time,</text>
  <text x="200" y="308" text-anchor="middle" font-family="Arial, sans-serif" font-size="13" fill="#5C4F4A">from BT to AAA</text>

  <circle cx="200" cy="374" r="36" fill="none" stroke="#C80000" stroke-width="2"/>
  <circle cx="200" cy="374" r="29" fill="none" stroke="#F4A405" stroke-width="1"/>
  <path d="M188,374 l8,8 l16,-18" fill="none" stroke="#C80000" stroke-width="2.5" stroke-linecap="round" stroke-linejoin="round"/>

  <text x="200" y="430" text-anchor="middle" font-family="Arial, sans-serif" font-size="12" fill="#8E817B">December 2028</text>

  <line x1="150" y1="456" x2="250" y2="456" stroke="#E9D9B8" stroke-width="1"/>
  <text x="200" y="474" text-anchor="middle" font-family="Arial, sans-serif" font-size="9" letter-spacing="1" fill="#A1948D">PRESIDENT · SECRETARY</text>

  <text x="200" y="500" text-anchor="middle" font-family="Arial, sans-serif" font-weight="700" font-size="11" letter-spacing="3" fill="#C80000">SCHOLIFY</text>
</svg>
