<svg xmlns="http://www.w3.org/2000/svg" viewBox="0 0 400 520" width="400" height="520">
  <rect x="1" y="1" width="398" height="518" rx="12" fill="#FFFFFF"/>
  <rect x="8" y="8" width="384" height="504" rx="10" fill="none" stroke="#C80000" stroke-width="2"/>
  <rect x="20" y="20" width="360" height="480" rx="6" fill="none" stroke="#EAEAEA" stroke-width="1"/>

  <path d="M200,50 L220,62 L220,86 L200,98 L180,86 L180,62 Z" fill="none" stroke="#C80000" stroke-width="3.5"/>
  <circle cx="200" cy="74" r="4.5" fill="#C80000"/>

  <text x="200" y="150" text-anchor="middle" font-family="Georgia, 'Times New Roman', serif" font-weight="700" font-size="32" fill="#14141A">Member</text>

  <text x="200" y="190" text-anchor="middle" font-family="Arial, sans-serif" font-size="11" letter-spacing="1.5" fill="#A1948D">THIS CERTIFIES THAT</text>
  <text x="200" y="226" text-anchor="middle" font-family="Georgia, serif" font-style="italic" font-size="25" fill="#14141A">A. Student</text>

  <text x="200" y="262" text-anchor="middle" font-family="Arial, sans-serif" font-size="13" fill="#5C4F4A">qualified as a Chartered Certified</text>
  <text x="200" y="282" text-anchor="middle" font-family="Arial, sans-serif" font-size="13" fill="#5C4F4A">Accountant, one paper at a time,</text>
  <text x="200" y="302" text-anchor="middle" font-family="Arial, sans-serif" font-size="13" fill="#5C4F4A">from BT to AAA</text>

  <circle cx="200" cy="368" r="34" fill="none" stroke="#C80000" stroke-width="2"/>
  <circle cx="200" cy="368" r="27" fill="none" stroke="#C80000" stroke-width="1"/>
  <text x="200" y="373" text-anchor="middle" font-family="Georgia, serif" font-weight="700" font-size="11" letter-spacing="1" fill="#C80000">QUALIFIED</text>

  <text x="200" y="426" text-anchor="middle" font-family="Arial, sans-serif" font-size="12" fill="#8E817B">Month, 20XX</text>

  <line x1="140" y1="452" x2="260" y2="452" stroke="#EAEAEA" stroke-width="1"/>
  <text x="200" y="478" text-anchor="middle" font-family="Arial, sans-serif" font-size="9" fill="#B9ACA5">Illustrative sample — not an official ACCA document</text>
  <text x="200" y="500" text-anchor="middle" font-family="Arial, sans-serif" font-weight="700" font-size="11" letter-spacing="2" fill="#C80000">SCHOLIFY</text>
</svg>
