<svg xmlns="http://www.w3.org/2000/svg" viewBox="0 0 400 520" width="400" height="520">
  <defs>
    <linearGradient id="paper-p" x1="0" y1="0" x2="1" y2="1">
      <stop offset="0" stop-color="#FFFFFF"/>
      <stop offset="1" stop-color="#FAF7F2"/>
    </linearGradient>
    <linearGradient id="gold-p" x1="0" y1="0" x2="1" y2="0">
      <stop offset="0" stop-color="#C80000"/>
      <stop offset="1" stop-color="#F4A405"/>
    </linearGradient>
  </defs>

  <rect x="0" y="0" width="400" height="520" rx="14" fill="url(#paper-p)"/>
  <rect x="1" y="1" width="398" height="518" rx="14" fill="none" stroke="#EDE6DC" stroke-width="1"/>
  <rect x="10" y="10" width="380" height="500" rx="10" fill="none" stroke="url(#gold-p)" stroke-width="2"/>
  <rect x="18" y="18" width="364" height="484" rx="6" fill="none" stroke="#E4DACB" stroke-width="1"/>

  <g opacity="0.05" transform="translate(200,270) rotate(-24)">
    <text x="0" y="0" text-anchor="middle" font-family="Georgia, serif" font-weight="700" font-size="54" letter-spacing="6" fill="#14141A">SPECIMEN</text>
  </g>

  <path d="M32,34 h20 M34,32 v20" stroke="#F4A405" stroke-width="1.5"/>
  <path d="M368,34 h-20 M366,32 v20" stroke="#F4A405" stroke-width="1.5"/>
  <path d="M32,486 h20 M34,488 v-20" stroke="#F4A405" stroke-width="1.5"/>
  <path d="M368,486 h-20 M366,488 v-20" stroke="#F4A405" stroke-width="1.5"/>

  <path d="M200,50 L219,62 L219,86 L200,98 L181,86 L181,62 Z" fill="none" stroke="#C80000" stroke-width="3"/>
  <circle cx="200" cy="74" r="4.5" fill="#C80000"/>

  <text x="200" y="150" text-anchor="middle" font-family="Georgia, 'Times New Roman', serif" font-weight="700" font-size="30" fill="#14141A">Professional Level</text>
  <path d="M150,168 h100" stroke="#F4A405" stroke-width="1.5"/>

  <text x="200" y="200" text-anchor="middle" font-family="Arial, sans-serif" font-size="11" letter-spacing="2" fill="#A1948D">THIS CERTIFIES THAT</text>
  <text x="200" y="232" text-anchor="middle" font-family="Georgia, serif" font-style="italic" font-size="21" fill="#14141A">Makhmudov Nuriddin</text>

  <text x="200" y="266" text-anchor="middle" font-family="Arial, sans-serif" font-size="13" fill="#5C4F4A">has completed the Professional Level</text>

  <text x="200" y="300" text-anchor="middle" font-family="Arial, sans-serif" font-size="12.5" fill="#14141A">Strategic Business Leader — Pass</text>
  <text x="200" y="320" text-anchor="middle" font-family="Arial, sans-serif" font-size="12.5" fill="#14141A">Strategic Business Reporting — Pass</text>
  <text x="200" y="340" text-anchor="middle" font-family="Arial, sans-serif" font-size="12.5" fill="#14141A">Two Options papers — Pass</text>

  <text x="200" y="374" text-anchor="middle" font-family="Arial, sans-serif" font-size="12" fill="#8E817B">Month, 20XX</text>

  <circle cx="200" cy="416" r="26" fill="none" stroke="#C80000" stroke-width="1.5"/>
  <circle cx="200" cy="416" r="21" fill="none" stroke="#F4A405" stroke-width="1"/>
  <text x="200" y="413" text-anchor="middle" font-family="Georgia, serif" font-weight="700" font-size="7" letter-spacing="0.3" fill="#C80000">PROFES-</text>
  <text x="200" y="422" text-anchor="middle" font-family="Georgia, serif" font-weight="700" font-size="7" letter-spacing="0.3" fill="#C80000">SIONAL</text>

  <line x1="150" y1="454" x2="250" y2="454" stroke="#D9CFC0" stroke-width="1"/>
  <text x="200" y="470" text-anchor="middle" font-family="Arial, sans-serif" font-size="9" letter-spacing="1" fill="#A1948D">PROGRAM DIRECTOR</text>

  <text x="200" y="500" text-anchor="middle" font-family="Arial, sans-serif" font-weight="700" font-size="11" letter-spacing="3" fill="#C80000">SCHOLIFY</text>
</svg>
