<?xml version="1.0" encoding="UTF-8"?>
<svg width="1024" height="1024" viewBox="0 0 1024 1024" xmlns="http://www.w3.org/2000/svg" role="img" aria-labelledby="title desc">
  <title id="title">Scholify app icon</title>
  <desc id="desc">Dark square app icon with a white geometric circuit-style Scholify logo.</desc>
  <rect width="1024" height="1024" fill="#292438"/>
  <path d="
    M 459.0 390.0 L 457.0 391.0 L 449.0 391.0 L 448.0 390.0 L 431.0 390.0 L 430.0 389.0 L 411.0 388.0 L 410.0 387.0 L 400.0 387.0 L 399.0 386.0 L 347.0 386.0 L 346.0 385.0 L 336.0 385.0 L 335.0 384.0 L 326.0 384.0 L 325.0 383.0 L 317.0 383.0 L 316.0 382.0 L 306.0 382.0 L 297.0 388.0 L 296.0 391.0 L 293.0 394.0 L 290.0 400.0 L 285.0 406.0 L 283.0 411.0 L 281.0 412.0 L 279.0 417.0 L 276.0 420.0 L 259.0 447.0 L 254.0 451.0 L 239.0 451.0 L 234.0 456.0 L 232.0 456.0 L 222.0 466.0 L 220.0 470.0 L 219.0 478.0 L 215.0 481.0 L 215.0 489.0 L 219.0 492.0 L 219.0 494.0 L 220.0 495.0 L 220.0 501.0 L 224.0 505.0 L 224.0 508.0 L 226.0 510.0 L 230.0 511.0 L 233.0 514.0 L 236.0 515.0 L 241.0 519.0 L 250.0 519.0 L 251.0 520.0 L 253.0 519.0 L 261.0 519.0 L 271.0 514.0 L 278.0 507.0 L 279.0 504.0 L 283.0 500.0 L 283.0 494.0 L 287.0 488.0 L 287.0 482.0 L 286.0 481.0 L 286.0 479.0 L 283.0 475.0 L 283.0 468.0 L 286.0 465.0 L 288.0 460.0 L 292.0 456.0 L 292.0 454.0 L 295.0 450.0 L 296.0 447.0 L 300.0 443.0 L 301.0 439.0 L 305.0 435.0 L 306.0 432.0 L 309.0 429.0 L 310.0 426.0 L 313.0 422.0 L 321.0 415.0 L 342.0 415.0 L 343.0 416.0 L 354.0 416.0 L 355.0 417.0 L 358.0 417.0 L 361.0 420.0 L 358.0 427.0 L 354.0 430.0 L 353.0 434.0 L 346.0 443.0 L 344.0 448.0 L 337.0 457.0 L 336.0 461.0 L 332.0 465.0 L 332.0 467.0 L 329.0 470.0 L 324.0 479.0 L 320.0 483.0 L 319.0 487.0 L 315.0 491.0 L 314.0 495.0 L 311.0 498.0 L 306.0 507.0 L 303.0 510.0 L 301.0 515.0 L 298.0 518.0 L 297.0 521.0 L 290.0 530.0 L 289.0 535.0 L 285.0 540.0 L 285.0 545.0 L 288.0 548.0 L 289.0 553.0 L 293.0 559.0 L 294.0 563.0 L 296.0 564.0 L 298.0 571.0 L 300.0 572.0 L 304.0 569.0 L 309.0 560.0 L 313.0 557.0 L 313.0 555.0 L 317.0 550.0 L 318.0 546.0 L 322.0 542.0 L 322.0 540.0 L 330.0 530.0 L 332.0 525.0 L 335.0 523.0 L 339.0 515.0 L 343.0 509.0 L 347.0 505.0 L 349.0 500.0 L 352.0 497.0 L 353.0 493.0 L 357.0 489.0 L 361.0 480.0 L 364.0 477.0 L 366.0 472.0 L 369.0 469.0 L 371.0 464.0 L 380.0 452.0 L 382.0 447.0 L 386.0 443.0 L 387.0 439.0 L 391.0 435.0 L 392.0 432.0 L 401.0 424.0 L 404.0 424.0 L 410.0 420.0 L 413.0 420.0 L 414.0 419.0 L 422.0 419.0 L 423.0 420.0 L 442.0 419.0 L 447.0 414.0 L 452.0 405.0 L 456.0 401.0 L 457.0 397.0 L 460.0 395.0 L 461.0 392.0 Z
    M 388.0 500.0 L 385.0 500.0 L 384.0 501.0 L 383.0 505.0 L 376.0 514.0 L 374.0 519.0 L 372.0 520.0 L 366.0 532.0 L 359.0 541.0 L 357.0 546.0 L 355.0 547.0 L 353.0 553.0 L 350.0 555.0 L 348.0 560.0 L 345.0 564.0 L 345.0 566.0 L 341.0 570.0 L 336.0 580.0 L 333.0 583.0 L 332.0 586.0 L 325.0 595.0 L 323.0 601.0 L 320.0 603.0 L 318.0 609.0 L 316.0 610.0 L 314.0 615.0 L 311.0 618.0 L 310.0 621.0 L 307.0 624.0 L 305.0 629.0 L 303.0 631.0 L 303.0 638.0 L 305.0 640.0 L 308.0 647.0 L 310.0 649.0 L 311.0 654.0 L 314.0 657.0 L 315.0 662.0 L 319.0 667.0 L 319.0 670.0 L 324.0 677.0 L 324.0 679.0 L 327.0 683.0 L 328.0 687.0 L 331.0 690.0 L 332.0 695.0 L 336.0 699.0 L 337.0 707.0 L 332.0 714.0 L 332.0 738.0 L 342.0 752.0 L 346.0 753.0 L 351.0 758.0 L 355.0 760.0 L 360.0 760.0 L 361.0 761.0 L 371.0 761.0 L 379.0 757.0 L 381.0 757.0 L 386.0 753.0 L 388.0 753.0 L 391.0 751.0 L 392.0 748.0 L 395.0 745.0 L 397.0 740.0 L 400.0 736.0 L 400.0 719.0 L 395.0 708.0 L 391.0 704.0 L 391.0 702.0 L 389.0 699.0 L 384.0 697.0 L 381.0 694.0 L 379.0 694.0 L 378.0 693.0 L 370.0 693.0 L 365.0 688.0 L 360.0 677.0 L 357.0 673.0 L 357.0 671.0 L 355.0 667.0 L 353.0 665.0 L 352.0 660.0 L 348.0 656.0 L 348.0 654.0 L 344.0 649.0 L 343.0 644.0 L 341.0 642.0 L 341.0 640.0 L 340.0 639.0 L 340.0 630.0 L 343.0 627.0 L 345.0 622.0 L 348.0 619.0 L 349.0 616.0 L 352.0 614.0 L 353.0 610.0 L 355.0 608.0 L 357.0 604.0 L 357.0 602.0 L 359.0 600.0 L 363.0 600.0 L 366.0 603.0 L 368.0 608.0 L 371.0 611.0 L 372.0 615.0 L 374.0 617.0 L 376.0 621.0 L 376.0 623.0 L 380.0 629.0 L 380.0 631.0 L 383.0 634.0 L 385.0 641.0 L 388.0 644.0 L 389.0 649.0 L 392.0 652.0 L 395.0 660.0 L 399.0 665.0 L 401.0 669.0 L 401.0 671.0 L 405.0 676.0 L 406.0 681.0 L 410.0 686.0 L 410.0 688.0 L 413.0 692.0 L 414.0 697.0 L 419.0 704.0 L 419.0 707.0 L 423.0 711.0 L 423.0 715.0 L 424.0 717.0 L 425.0 717.0 L 427.0 720.0 L 435.0 727.0 L 465.0 727.0 L 465.0 721.0 L 461.0 717.0 L 460.0 712.0 L 457.0 709.0 L 455.0 703.0 L 453.0 701.0 L 450.0 694.0 L 447.0 690.0 L 447.0 688.0 L 444.0 685.0 L 443.0 680.0 L 439.0 675.0 L 439.0 673.0 L 436.0 669.0 L 435.0 665.0 L 431.0 659.0 L 430.0 655.0 L 427.0 651.0 L 425.0 645.0 L 422.0 642.0 L 422.0 640.0 L 420.0 636.0 L 418.0 635.0 L 417.0 630.0 L 413.0 626.0 L 412.0 622.0 L 409.0 619.0 L 409.0 617.0 L 405.0 611.0 L 403.0 605.0 L 400.0 602.0 L 399.0 598.0 L 396.0 594.0 L 395.0 589.0 L 391.0 583.0 L 391.0 579.0 L 387.0 571.0 L 387.0 557.0 L 388.0 556.0 L 388.0 554.0 L 391.0 550.0 L 391.0 548.0 L 393.0 544.0 L 400.0 535.0 L 400.0 529.0 L 401.0 528.0 L 401.0 526.0 L 400.0 525.0 L 400.0 520.0 L 396.0 515.0 L 396.0 513.0 Z
    M 363.0 257.0 L 358.0 267.0 L 358.0 282.0 L 359.0 283.0 L 359.0 286.0 L 363.0 294.0 L 371.0 302.0 L 374.0 303.0 L 378.0 307.0 L 384.0 307.0 L 385.0 308.0 L 387.0 308.0 L 391.0 311.0 L 401.0 310.0 L 411.0 305.0 L 419.0 298.0 L 420.0 298.0 L 421.0 297.0 L 422.0 292.0 L 424.0 290.0 L 458.0 291.0 L 459.0 292.0 L 482.0 292.0 L 486.0 294.0 L 492.0 300.0 L 493.0 304.0 L 495.0 306.0 L 497.0 311.0 L 501.0 315.0 L 501.0 317.0 L 504.0 320.0 L 508.0 328.0 L 505.0 330.0 L 371.0 330.0 L 360.0 335.0 L 355.0 341.0 L 353.0 347.0 L 350.0 350.0 L 349.0 354.0 L 345.0 359.0 L 345.0 362.0 L 346.0 363.0 L 514.0 363.0 L 522.0 367.0 L 527.0 368.0 L 531.0 372.0 L 532.0 372.0 L 537.0 377.0 L 540.0 382.0 L 540.0 384.0 L 544.0 388.0 L 545.0 391.0 L 551.0 397.0 L 553.0 398.0 L 577.0 398.0 L 578.0 399.0 L 581.0 399.0 L 582.0 398.0 L 581.0 393.0 L 578.0 390.0 L 578.0 388.0 L 574.0 383.0 L 572.0 377.0 L 569.0 374.0 L 568.0 370.0 L 565.0 367.0 L 564.0 363.0 L 561.0 360.0 L 559.0 354.0 L 556.0 351.0 L 555.0 347.0 L 552.0 344.0 L 546.0 332.0 L 543.0 329.0 L 541.0 324.0 L 539.0 322.0 L 538.0 318.0 L 535.0 315.0 L 534.0 311.0 L 530.0 307.0 L 529.0 302.0 L 525.0 297.0 L 525.0 294.0 L 522.0 291.0 L 520.0 286.0 L 513.0 277.0 L 512.0 273.0 L 509.0 270.0 L 508.0 267.0 L 500.0 261.0 L 495.0 261.0 L 494.0 260.0 L 428.0 260.0 L 426.0 261.0 L 422.0 258.0 L 421.0 254.0 L 416.0 248.0 L 412.0 247.0 L 409.0 244.0 L 403.0 243.0 L 399.0 239.0 L 388.0 239.0 L 388.0 241.0 L 386.0 243.0 L 378.0 244.0 L 373.0 248.0 L 371.0 248.0 Z
    M 668.0 252.0 L 651.0 252.0 L 646.0 254.0 L 642.0 257.0 L 640.0 257.0 L 638.0 260.0 L 631.0 266.0 L 630.0 270.0 L 626.0 275.0 L 626.0 280.0 L 627.0 281.0 L 626.0 282.0 L 626.0 297.0 L 627.0 298.0 L 627.0 300.0 L 630.0 303.0 L 632.0 309.0 L 637.0 311.0 L 640.0 315.0 L 644.0 316.0 L 647.0 319.0 L 649.0 319.0 L 650.0 320.0 L 658.0 320.0 L 664.0 327.0 L 666.0 333.0 L 669.0 336.0 L 670.0 340.0 L 673.0 343.0 L 675.0 349.0 L 678.0 352.0 L 680.0 357.0 L 683.0 361.0 L 684.0 365.0 L 687.0 369.0 L 687.0 380.0 L 686.0 381.0 L 686.0 383.0 L 683.0 386.0 L 681.0 391.0 L 678.0 395.0 L 678.0 397.0 L 675.0 400.0 L 668.0 414.0 L 666.0 414.0 L 664.0 412.0 L 663.0 407.0 L 657.0 399.0 L 650.0 385.0 L 647.0 382.0 L 647.0 380.0 L 644.0 376.0 L 642.0 371.0 L 638.0 366.0 L 637.0 362.0 L 634.0 359.0 L 633.0 354.0 L 630.0 351.0 L 629.0 347.0 L 626.0 344.0 L 625.0 341.0 L 621.0 336.0 L 621.0 334.0 L 613.0 322.0 L 612.0 318.0 L 609.0 315.0 L 607.0 309.0 L 604.0 306.0 L 603.0 303.0 L 599.0 298.0 L 599.0 296.0 L 595.0 292.0 L 594.0 288.0 L 592.0 287.0 L 559.0 287.0 L 558.0 288.0 L 566.0 300.0 L 567.0 304.0 L 570.0 307.0 L 570.0 309.0 L 574.0 315.0 L 575.0 319.0 L 578.0 322.0 L 579.0 326.0 L 581.0 328.0 L 584.0 335.0 L 586.0 337.0 L 589.0 344.0 L 591.0 346.0 L 592.0 351.0 L 595.0 354.0 L 597.0 360.0 L 599.0 362.0 L 601.0 367.0 L 604.0 370.0 L 605.0 374.0 L 609.0 378.0 L 610.0 382.0 L 612.0 384.0 L 614.0 389.0 L 617.0 392.0 L 619.0 397.0 L 622.0 400.0 L 622.0 402.0 L 625.0 405.0 L 627.0 411.0 L 630.0 414.0 L 631.0 419.0 L 635.0 422.0 L 635.0 425.0 L 639.0 430.0 L 640.0 436.0 L 643.0 441.0 L 643.0 445.0 L 644.0 446.0 L 644.0 454.0 L 640.0 461.0 L 639.0 465.0 L 631.0 476.0 L 631.0 491.0 L 635.0 495.0 L 637.0 501.0 L 639.0 503.0 L 641.0 508.0 L 644.0 511.0 L 646.0 511.0 L 648.0 509.0 L 651.0 504.0 L 651.0 502.0 L 655.0 497.0 L 656.0 494.0 L 659.0 491.0 L 660.0 488.0 L 663.0 485.0 L 665.0 479.0 L 668.0 476.0 L 669.0 472.0 L 672.0 469.0 L 674.0 464.0 L 677.0 461.0 L 677.0 459.0 L 681.0 454.0 L 681.0 452.0 L 684.0 448.0 L 686.0 443.0 L 689.0 440.0 L 690.0 437.0 L 694.0 432.0 L 694.0 430.0 L 698.0 425.0 L 699.0 421.0 L 702.0 419.0 L 703.0 414.0 L 706.0 411.0 L 712.0 399.0 L 715.0 396.0 L 717.0 391.0 L 724.0 381.0 L 724.0 376.0 L 725.0 375.0 L 724.0 374.0 L 724.0 370.0 L 721.0 367.0 L 720.0 363.0 L 717.0 360.0 L 715.0 353.0 L 711.0 349.0 L 711.0 347.0 L 708.0 343.0 L 707.0 339.0 L 703.0 334.0 L 703.0 331.0 L 699.0 327.0 L 698.0 322.0 L 695.0 319.0 L 693.0 313.0 L 692.0 313.0 L 690.0 310.0 L 690.0 303.0 L 694.0 298.0 L 694.0 277.0 L 689.0 267.0 L 683.0 260.0 L 679.0 257.0 Z
    M 445.0 617.0 L 446.0 620.0 L 449.0 623.0 L 449.0 626.0 L 453.0 631.0 L 454.0 636.0 L 457.0 639.0 L 458.0 644.0 L 462.0 648.0 L 462.0 651.0 L 465.0 654.0 L 466.0 658.0 L 470.0 663.0 L 471.0 667.0 L 474.0 670.0 L 475.0 674.0 L 480.0 682.0 L 480.0 684.0 L 483.0 687.0 L 484.0 691.0 L 487.0 695.0 L 488.0 700.0 L 492.0 704.0 L 493.0 709.0 L 497.0 713.0 L 497.0 715.0 L 499.0 717.0 L 502.0 724.0 L 504.0 726.0 L 506.0 732.0 L 509.0 735.0 L 510.0 739.0 L 514.0 745.0 L 514.0 747.0 L 519.0 753.0 L 527.0 757.0 L 561.0 757.0 L 562.0 758.0 L 585.0 758.0 L 586.0 759.0 L 592.0 758.0 L 597.0 762.0 L 605.0 773.0 L 606.0 773.0 L 610.0 777.0 L 615.0 778.0 L 619.0 780.0 L 621.0 783.0 L 638.0 783.0 L 640.0 780.0 L 644.0 778.0 L 646.0 778.0 L 651.0 775.0 L 659.0 766.0 L 661.0 761.0 L 664.0 757.0 L 664.0 740.0 L 663.0 739.0 L 663.0 735.0 L 654.0 723.0 L 651.0 720.0 L 646.0 718.0 L 644.0 716.0 L 642.0 716.0 L 641.0 715.0 L 634.0 715.0 L 633.0 714.0 L 623.0 714.0 L 622.0 715.0 L 619.0 715.0 L 613.0 719.0 L 609.0 720.0 L 600.0 728.0 L 574.0 728.0 L 573.0 727.0 L 560.0 727.0 L 559.0 726.0 L 555.0 726.0 L 554.0 725.0 L 546.0 725.0 L 545.0 724.0 L 541.0 724.0 L 534.0 717.0 L 533.0 714.0 L 530.0 710.0 L 529.0 706.0 L 526.0 702.0 L 525.0 698.0 L 522.0 695.0 L 521.0 691.0 L 518.0 686.0 L 520.0 684.0 L 526.0 684.0 L 530.0 686.0 L 535.0 685.0 L 536.0 686.0 L 547.0 686.0 L 548.0 687.0 L 571.0 687.0 L 572.0 688.0 L 663.0 688.0 L 667.0 685.0 L 669.0 681.0 L 672.0 678.0 L 674.0 673.0 L 682.0 662.0 L 682.0 660.0 L 681.0 659.0 L 651.0 658.0 L 650.0 657.0 L 633.0 657.0 L 628.0 655.0 L 599.0 655.0 L 598.0 654.0 L 525.0 654.0 L 524.0 653.0 L 516.0 653.0 L 512.0 651.0 L 503.0 650.0 L 501.0 649.0 L 496.0 644.0 L 496.0 643.0 L 491.0 639.0 L 490.0 634.0 L 487.0 631.0 L 486.0 628.0 L 482.0 624.0 L 481.0 621.0 L 477.0 619.0 L 474.0 616.0 L 450.0 616.0 L 449.0 615.0 Z
    M 807.0 516.0 L 803.0 513.0 L 802.0 508.0 L 798.0 505.0 L 797.0 502.0 L 794.0 499.0 L 790.0 498.0 L 785.0 494.0 L 777.0 494.0 L 773.0 492.0 L 769.0 494.0 L 759.0 495.0 L 747.0 504.0 L 744.0 508.0 L 742.0 513.0 L 740.0 515.0 L 740.0 518.0 L 739.0 519.0 L 739.0 539.0 L 743.0 544.0 L 743.0 553.0 L 739.0 556.0 L 738.0 559.0 L 735.0 562.0 L 734.0 567.0 L 731.0 569.0 L 730.0 574.0 L 726.0 578.0 L 722.0 586.0 L 713.0 594.0 L 675.0 594.0 L 672.0 591.0 L 673.0 588.0 L 680.0 579.0 L 690.0 561.0 L 694.0 557.0 L 696.0 552.0 L 699.0 548.0 L 699.0 546.0 L 702.0 543.0 L 704.0 538.0 L 707.0 535.0 L 708.0 531.0 L 711.0 528.0 L 711.0 526.0 L 715.0 522.0 L 716.0 518.0 L 719.0 515.0 L 721.0 511.0 L 721.0 509.0 L 724.0 506.0 L 729.0 497.0 L 733.0 493.0 L 733.0 491.0 L 737.0 486.0 L 737.0 483.0 L 741.0 479.0 L 742.0 477.0 L 742.0 473.0 L 746.0 467.0 L 742.0 459.0 L 742.0 457.0 L 738.0 451.0 L 737.0 447.0 L 734.0 444.0 L 733.0 439.0 L 732.0 438.0 L 728.0 438.0 L 726.0 440.0 L 726.0 443.0 L 722.0 447.0 L 713.0 463.0 L 710.0 466.0 L 708.0 471.0 L 701.0 480.0 L 700.0 484.0 L 696.0 488.0 L 692.0 497.0 L 688.0 502.0 L 687.0 505.0 L 684.0 508.0 L 682.0 512.0 L 682.0 514.0 L 679.0 517.0 L 677.0 522.0 L 674.0 525.0 L 672.0 530.0 L 666.0 537.0 L 665.0 542.0 L 662.0 545.0 L 661.0 549.0 L 657.0 554.0 L 657.0 556.0 L 653.0 560.0 L 652.0 564.0 L 649.0 567.0 L 647.0 572.0 L 644.0 575.0 L 643.0 578.0 L 632.0 589.0 L 627.0 590.0 L 622.0 594.0 L 608.0 594.0 L 607.0 593.0 L 605.0 594.0 L 595.0 594.0 L 588.0 600.0 L 587.0 604.0 L 583.0 608.0 L 579.0 615.0 L 575.0 619.0 L 575.0 622.0 L 576.0 623.0 L 632.0 623.0 L 633.0 624.0 L 662.0 624.0 L 663.0 625.0 L 679.0 625.0 L 680.0 626.0 L 729.0 627.0 L 737.0 622.0 L 739.0 618.0 L 742.0 615.0 L 742.0 613.0 L 746.0 609.0 L 747.0 605.0 L 750.0 602.0 L 751.0 599.0 L 754.0 596.0 L 756.0 591.0 L 759.0 588.0 L 760.0 584.0 L 763.0 581.0 L 764.0 578.0 L 768.0 574.0 L 768.0 572.0 L 771.0 568.0 L 772.0 565.0 L 775.0 562.0 L 781.0 562.0 L 787.0 558.0 L 792.0 557.0 L 800.0 550.0 L 802.0 546.0 L 803.0 541.0 L 807.0 539.0 Z
    M 240.0 463.0 L 242.0 463.0 L 246.0 461.0 L 258.0 462.0 L 259.0 463.0 L 262.0 463.0 L 271.0 470.0 L 275.0 478.0 L 275.0 481.0 L 276.0 482.0 L 276.0 490.0 L 273.0 494.0 L 271.0 499.0 L 262.0 507.0 L 258.0 507.0 L 257.0 508.0 L 255.0 508.0 L 254.0 507.0 L 241.0 507.0 L 232.0 499.0 L 230.0 494.0 L 227.0 490.0 L 227.0 480.0 L 230.0 474.0 L 230.0 472.0 L 234.0 467.0 L 237.0 466.0 Z
    M 626.0 723.0 L 631.0 723.0 L 634.0 725.0 L 638.0 726.0 L 642.0 730.0 L 646.0 731.0 L 652.0 738.0 L 652.0 758.0 L 643.0 768.0 L 637.0 771.0 L 624.0 771.0 L 618.0 767.0 L 615.0 767.0 L 608.0 759.0 L 607.0 753.0 L 606.0 752.0 L 606.0 744.0 L 607.0 743.0 L 607.0 740.0 L 608.0 739.0 L 609.0 734.0 L 616.0 727.0 Z
    M 361.0 702.0 L 369.0 702.0 L 372.0 704.0 L 379.0 706.0 L 388.0 717.0 L 388.0 731.0 L 389.0 732.0 L 388.0 733.0 L 388.0 736.0 L 381.0 745.0 L 371.0 750.0 L 361.0 750.0 L 360.0 749.0 L 356.0 749.0 L 349.0 743.0 L 348.0 740.0 L 344.0 736.0 L 344.0 734.0 L 343.0 733.0 L 343.0 718.0 L 344.0 717.0 L 344.0 715.0 L 351.0 706.0 L 356.0 705.0 Z
    M 761.0 506.0 L 765.0 506.0 L 769.0 504.0 L 784.0 506.0 L 788.0 510.0 L 789.0 510.0 L 795.0 517.0 L 795.0 521.0 L 796.0 522.0 L 796.0 533.0 L 795.0 534.0 L 795.0 538.0 L 788.0 546.0 L 785.0 547.0 L 782.0 550.0 L 779.0 550.0 L 778.0 551.0 L 765.0 551.0 L 758.0 546.0 L 751.0 539.0 L 751.0 535.0 L 750.0 534.0 L 750.0 532.0 L 751.0 531.0 L 751.0 526.0 L 750.0 525.0 L 751.0 523.0 L 751.0 516.0 L 754.0 512.0 Z
    M 388.0 251.0 L 398.0 251.0 L 408.0 256.0 L 414.0 264.0 L 415.0 272.0 L 416.0 273.0 L 414.0 287.0 L 406.0 295.0 L 401.0 296.0 L 397.0 299.0 L 386.0 299.0 L 384.0 297.0 L 381.0 296.0 L 370.0 284.0 L 370.0 267.0 L 377.0 256.0 L 379.0 255.0 L 383.0 255.0 Z
    M 652.0 264.0 L 668.0 264.0 L 672.0 267.0 L 675.0 268.0 L 683.0 278.0 L 683.0 294.0 L 680.0 298.0 L 679.0 301.0 L 675.0 305.0 L 669.0 309.0 L 666.0 309.0 L 665.0 310.0 L 663.0 309.0 L 650.0 309.0 L 648.0 308.0 L 642.0 302.0 L 642.0 301.0 L 638.0 298.0 L 638.0 292.0 L 637.0 291.0 L 637.0 281.0 L 638.0 280.0 L 638.0 277.0 L 645.0 268.0 L 650.0 266.0 Z
  " fill="#ffffff" fill-rule="evenodd" clip-rule="evenodd" shape-rendering="geometricPrecision"/>
</svg>
